<svg xmlns="http://www.w3.org/2000/svg" height="48" width="48"><path d="M3.5 26.55V24.4h6.65v2.15Zm9.9-10.1L8.7 11.7l1.55-1.55 4.65 4.7ZM12 36.55q-.75 0-1.225-.5-.475-.5-.475-1.25 0-.7.5-1.225.5-.525 1.2-.525.75 0 1.25.55t.5 1.25q0 .7-.5 1.2t-1.25.5Zm3.95-9V25.5q0-3.4 2.325-5.75T24 17.4q3.4 0 5.75 2.35t2.35 5.75v2.05ZM18 44.7q-.75 0-1.225-.5-.475-.5-.475-1.25t.5-1.25q.5-.5 1.2-.5.75 0 1.25.525t.5 1.275q0 .7-.5 1.2t-1.25.5Zm6-8.15q-.75 0-1.225-.5-.475-.5-.475-1.25 0-.7.5-1.225.5-.525 1.2-.525.75 0 1.25.55t.5 1.25q0 .7-.5 1.2t-1.25.5ZM22.95 11.6V4.95h2.15v6.65ZM30 44.7q-.75 0-1.225-.5-.475-.5-.475-1.25t.5-1.25q.5-.5 1.2-.5.75 0 1.25.525t.5 1.275q0 .7-.5 1.2t-1.25.5Zm4.65-28.25-1.55-1.6 4.7-4.7 1.5 1.55ZM36 36.55q-.75 0-1.225-.5-.475-.5-.475-1.25 0-.7.5-1.225.5-.525 1.2-.525.75 0 1.25.55t.5 1.25q0 .7-.5 1.2t-1.25.5Zm1.9-10V24.4h6.65v2.15Z"/></svg>